<svg xmlns="http://www.w3.org/2000/svg" viewBox="0 0 48 48">
  <path d="M24 4C12.972066 4 4 12.972074 4 24C4 35.027926 12.972066 44 24 44C35.027934 44 44 35.027926 44 24C44 12.972074 35.027934 4 24 4 z M 24 7C33.406615 7 41 14.593391 41 24C41 33.406609 33.406615 41 24 41C14.593385 41 7 33.406609 7 24C7 14.593391 14.593385 7 24 7 z M 24 12C22.125 12 20.528815 12.757133 19.503906 13.910156C18.478997 15.063179 18 16.541667 18 18C18 19.458333 18.478997 20.936821 19.503906 22.089844C20.528815 23.242867 22.125 24 24 24C25.875 24 27.471185 23.242867 28.496094 22.089844C29.521003 20.936821 30 19.458333 30 18C30 16.541667 29.521003 15.063179 28.496094 13.910156C27.471185 12.757133 25.875 12 24 12 z M 24 15C25.124999 15 25.778816 15.367867 26.253906 15.902344C26.728997 16.436821 27 17.208333 27 18C27 18.791667 26.728997 19.563179 26.253906 20.097656C25.778816 20.632133 25.124999 21 24 21C22.875001 21 22.221184 20.632133 21.746094 20.097656C21.271003 19.563179 21 18.791667 21 18C21 17.208333 21.271003 16.436821 21.746094 15.902344C22.221184 15.367867 22.875001 15 24 15 z M 17.259766 26C15.478261 26 14 27.477066 14 29.259766L14 30.341797C14 32.32976 15.256514 34.057405 17.046875 35.199219C18.837236 36.341033 21.229275 37.001953 24 37.001953C26.770725 37.001953 29.162764 36.341033 30.953125 35.199219C32.743486 34.057405 34 32.32976 34 30.341797L34 29.259766C34 27.478261 32.522934 26 30.740234 26L17.259766 26 z M 17.259766 29L30.740234 29C30.901535 29 31 29.09927 31 29.259766L31 30.341797C31 31.053834 30.535733 31.907236 29.339844 32.669922C28.143954 33.432608 26.284275 34.001953 24 34.001953C21.715725 34.001953 19.856046 33.432608 18.660156 32.669922C17.464267 31.907236 17 31.053834 17 30.341797L17 29.259766C17 29.098465 17.09927 29 17.259766 29 z" fill="#969696" />
</svg>