<svg xmlns="http://www.w3.org/2000/svg" viewBox="0 0 24 24">
  <path d="M16,7l0,10.399c0,1.67-1.129,3.19-2.765,3.525C10.986,21.385,9,19.67,9,17.5L9,5.113c0-0.996,0.678-1.922,1.661-2.085 C11.913,2.821,13,3.786,13,5v10.5c0,0.276-0.225,0.5-0.5,0.5S12,15.776,12,15.5V7c0-0.552-0.448-1-1-1h0c-0.552,0-1,0.448-1,1 l0,8.353c0,1.308,0.939,2.502,2.24,2.634C13.735,18.139,15,16.964,15,15.5l0-10.322c0-2.088-1.523-3.956-3.601-4.158 C9.014,0.788,7,2.663,7,5l0,12.255c0,2.871,2.093,5.439,4.949,5.718C15.228,23.294,18,20.714,18,17.5V7c0-0.552-0.448-1-1-1h0 C16.448,6,16,6.448,16,7z" fill="#969696" />
</svg>