<svg xmlns="http://www.w3.org/2000/svg" viewBox="0 0 48 48">
  <path d="M38.982422 6.9707031 A 2.0002 2.0002 0 0 0 37.585938 7.5859375L24 21.171875L10.414062 7.5859375 A 2.0002 2.0002 0 0 0 8.9785156 6.9804688 A 2.0002 2.0002 0 0 0 7.5859375 10.414062L21.171875 24L7.5859375 37.585938 A 2.0002 2.0002 0 1 0 10.414062 40.414062L24 26.828125L37.585938 40.414062 A 2.0002 2.0002 0 1 0 40.414062 37.585938L26.828125 24L40.414062 10.414062 A 2.0002 2.0002 0 0 0 38.982422 6.9707031 z" fill="#969696" />
</svg>