<svg xmlns="http://www.w3.org/2000/svg" viewBox="0 0 24 24">
  <path d="M12 3C11.448 3 11 3.448 11 4L11 17.070312L7.1367188 13.207031C6.7457187 12.816031 6.1126563 12.816031 5.7226562 13.207031L5.6367188 13.292969C5.2457187 13.683969 5.2457187 14.317031 5.6367188 14.707031L11.292969 20.363281C11.683969 20.754281 12.317031 20.754281 12.707031 20.363281L18.363281 14.707031C18.754281 14.316031 18.754281 13.682969 18.363281 13.292969L18.277344 13.207031C17.886344 12.816031 17.253281 12.816031 16.863281 13.207031L13 17.070312L13 4C13 3.448 12.552 3 12 3 z" fill="#969696" />
</svg>