<svg xmlns="http://www.w3.org/2000/svg" viewBox="0 0 24 24">
  <path d="M17 3C15.895 3 15 3.895 15 5L15 11.390625C15 11.931625 15.655109 12.203313 16.037109 11.820312L17.734375 10L21 10C21.414 10 21.798187 9.8742031 22.117188 9.6582031C22.330188 9.5142031 22.514203 9.3301875 22.658203 9.1171875C22.874203 8.7981875 23 8.414 23 8L23 5C23 4.586 22.874203 4.2018125 22.658203 3.8828125C22.514203 3.6698125 22.330187 3.4857969 22.117188 3.3417969C21.798187 3.1257969 21.414 3 21 3L17 3 z M 9.5 5 A 3.5 3.5 0 0 0 6 8.5 A 3.5 3.5 0 0 0 9.5 12 A 3.5 3.5 0 0 0 13 8.5 A 3.5 3.5 0 0 0 9.5 5 z M 9.5 14C6.515 14 2 15.795 2 18.5L2 20C2 20.552 2.448 21 3 21L16 21C16.552 21 17 20.552 17 20L17 18.5C17 15.795 12.485 14 9.5 14 z" fill="#969696" />
</svg>