<svg xmlns="http://www.w3.org/2000/svg" viewBox="0 0 24 24">
  <path d="M22.239,18.451L13.442,3.816C13.135,3.305,12.596,3,12,3s-1.135,0.305-1.441,0.815L1.761,18.451 c-0.312,0.519-0.32,1.168-0.022,1.695C2.036,20.673,2.597,21,3.203,21h17.595c0.605,0,1.167-0.327,1.464-0.854 C22.56,19.619,22.551,18.97,22.239,18.451z M12.5,18h-1c-0.276,0-0.5-0.224-0.5-0.5v-1c0-0.276,0.224-0.5,0.5-0.5h1 c0.276,0,0.5,0.224,0.5,0.5v1C13,17.776,12.776,18,12.5,18z M12,14L12,14c-0.552,0-1-0.448-1-1v-3c0-0.552,0.448-1,1-1h0 c0.552,0,1,0.448,1,1v3C13,13.552,12.552,14,12,14z" fill="#969696" />
</svg>