<svg xmlns="http://www.w3.org/2000/svg" viewBox="0 0 48 48">
  <path d="M25 4C22.25 4 20.227654 4.6999147 18.896484 5.4394531C17.97027 5.9540167 17.759733 6.2601642 17.457031 6.5683594C12.047433 6.9099002 3 12.622688 3 31.5C3 37.281501 7.7184991 42 13.5 42L17.880859 42C19.709765 43.253653 21.779113 44 24 44C26.220887 44 28.290226 43.253653 30.119141 42L34.5 42C40.281501 42 45 37.281501 45 31.5C45 21.770395 42.767417 14.898893 39.072266 10.419922C35.377115 5.9409508 30.245556 4 25 4 z M 25 7C29.529444 7 33.646715 8.5590492 36.757812 12.330078C39.868911 16.101107 42 22.229605 42 31.5C42 35.660499 38.660499 39 34.5 39L33.296875 39C33.443212 38.816054 33.598371 38.642776 33.738281 38.451172C36.178012 35.110015 37.722769 30.597683 37.998047 25.582031 A 1.5002913 1.5002913 0 1 0 35.001953 25.417969C34.755231 29.913317 33.347175 33.900548 31.316406 36.681641C30.591749 37.674042 29.79744 38.499804 28.955078 39.162109 A 1.50015 1.50015 0 0 0 28.560547 39.451172C27.146973 40.454886 25.605724 41 24 41C22.355809 41 20.778829 40.43174 19.337891 39.380859 A 1.50015 1.50015 0 0 0 19.101562 39.210938C18.237548 38.541521 17.424835 37.696754 16.683594 36.681641C14.658187 33.907891 13.256092 29.931973 13.003906 25.451172C13.016566 20.355544 14.740238 18.217771 16.349609 17.111328C17.666971 16.205642 18.721152 16.081727 19.142578 16.050781C21.699972 17.962767 24.7004 18.263424 27.238281 18.494141C29.9842 18.74377 32.069809 19.001099 33.371094 20.488281 A 1.500376 1.500376 0 1 0 35.628906 18.511719C33.430191 15.998901 30.2658 15.75623 27.511719 15.505859C24.757637 15.255488 22.318266 14.998615 20.496094 13.378906 A 1.50015 1.50015 0 0 0 19.5 13C19.5 13 17.035089 12.999192 14.650391 14.638672C12.265692 16.278152 10 19.636364 10 25.5 A 1.50015 1.50015 0 0 0 10.001953 25.582031C10.277231 30.597683 11.821988 35.110015 14.261719 38.451172C14.401626 38.642776 14.556791 38.816054 14.703125 39L13.5 39C9.3395009 39 6 35.660499 6 31.5C6 12.985632 14.780124 9.5 18 9.5 A 1.50015 1.50015 0 0 0 19.171875 8.9375C19.171875 8.9375 19.434685 8.5710084 20.353516 8.0605469C21.272346 7.5500853 22.75 7 25 7 z M 19 26 A 2 2 0 0 0 19 30 A 2 2 0 0 0 19 26 z M 29 26 A 2 2 0 0 0 29 30 A 2 2 0 0 0 29 26 z" fill="#969696" />
</svg>