<svg xmlns="http://www.w3.org/2000/svg" viewBox="0 0 48 48">
  <path d="M23 4C10.477 4 3 14.28 3 31.5L3 36.5C3 39.538 5.462 42 8.5 42L17.833984 42C19.693984 43.277 21.782 44 24 44C26.216 44 28.303109 43.278 30.162109 42L39.5 42C42.538 42 45 39.538 45 36.5L45 31.5C45 12.512 35.953625 6.9383906 30.640625 6.5253906C29.648625 5.6453906 27.231 4 23 4 z M 28.902344 17.109375C30.547344 17.527375 34.979047 19.235938 34.998047 25.460938C34.506047 34.177937 29.681 41 24 41C18.315 41 13.486 34.166453 13 25.439453L13 22.5C13 21.672 13.672 21 14.5 21C14.896 21 23.879344 20.953375 28.902344 17.109375 z M 19 26 A 2 2 0 0 0 19 30 A 2 2 0 0 0 19 26 z M 29 26 A 2 2 0 0 0 29 30 A 2 2 0 0 0 29 26 z" fill="#969696" />
</svg>