<svg xmlns="http://www.w3.org/2000/svg" viewBox="0 0 48 48">
  <path d="M13 5.5C11 5.5 9.2474045 6.3220112 8.1308594 7.578125C7.0143142 8.8342388 6.5 10.430556 6.5 12C6.5 13.569444 7.0143142 15.165761 8.1308594 16.421875C9.2474045 17.677989 11 18.5 13 18.5C15 18.5 16.752595 17.677989 17.869141 16.421875C18.985686 15.165761 19.5 13.569444 19.5 12C19.5 10.430556 18.985686 8.8342388 17.869141 7.578125C16.752595 6.3220112 15 5.5 13 5.5 z M 35 5.5C33 5.5 31.247405 6.3220112 30.130859 7.578125C29.014314 8.8342388 28.5 10.430556 28.5 12C28.5 13.569444 29.014314 15.165761 30.130859 16.421875C31.247405 17.677989 33 18.5 35 18.5C37 18.5 38.752595 17.677989 39.869141 16.421875C40.985686 15.165761 41.5 13.569444 41.5 12C41.5 10.430556 40.985686 8.8342388 39.869141 7.578125C38.752595 6.3220112 37 5.5 35 5.5 z M 13 9.5C13.999999 9.5 14.497405 9.8029888 14.880859 10.234375C15.264314 10.665761 15.5 11.319444 15.5 12C15.5 12.680556 15.264314 13.334239 14.880859 13.765625C14.497405 14.197011 13.999999 14.5 13 14.5C12.000001 14.5 11.502595 14.197011 11.119141 13.765625C10.735686 13.334239 10.5 12.680556 10.5 12C10.5 11.319444 10.735686 10.665761 11.119141 10.234375C11.502595 9.8029888 12.000001 9.5 13 9.5 z M 35 9.5C35.999999 9.5 36.497405 9.8029888 36.880859 10.234375C37.264314 10.665761 37.5 11.319444 37.5 12C37.5 12.680556 37.264314 13.334239 36.880859 13.765625C36.497405 14.197011 35.999999 14.5 35 14.5C34.000001 14.5 33.502595 14.197011 33.119141 13.765625C32.735686 13.334239 32.5 12.680556 32.5 12C32.5 11.319444 32.735686 10.665761 33.119141 10.234375C33.502595 9.8029888 34.000001 9.5 35 9.5 z M 24 17 A 6 6 0 0 0 24 29 A 6 6 0 0 0 24 17 z M 7.3789062 20.5C5.2409063 20.5 3.5 22.104219 3.5 24.074219L3.5 28.042969C3.5 31.676969 9.32575 33.195625 13.09375 33.515625C13.41575 31.745625 14.584969 30.270391 16.167969 29.525391C15.642969 29.558391 15.105969 29.582031 14.542969 29.582031C11.320969 29.582031 8.213 28.462438 7.5 27.773438L7.5 24.5L16.152344 24.505859C16.057344 24.016859 16 23.516 16 23C16 22.126 16.14625 21.288 16.40625 20.5L7.3789062 20.5 z M 31.595703 20.5C31.854703 21.288 32 22.126 32 23C32 23.515 31.941656 24.015906 31.847656 24.503906L40.583984 24.509766L40.583984 27.773438C39.871984 28.461437 36.764969 29.583984 33.542969 29.583984C32.938969 29.583984 32.354156 29.550906 31.785156 29.503906C33.394156 30.242906 34.584203 31.732437 34.908203 33.523438C38.673203 33.219437 44.585938 31.703969 44.585938 28.042969L44.585938 24.074219C44.583937 22.103219 42.843078 20.5 40.705078 20.5L31.595703 20.5 z M 18.5 31C16.57 31 15 32.57 15 34.5L15 37C15 40.364 18.953 43 24 43C29.047 43 33 40.364 33 37L33 34.5C33 32.57 31.43 31 29.5 31L18.5 31 z" fill="#969696" />
</svg>