<svg xmlns="http://www.w3.org/2000/svg" viewBox="0 0 24 24">
  <path d="M11.5 3 A 1.5 1.5 0 0 0 10 4.5 A 1.5 1.5 0 0 0 11.5 6 A 1.5 1.5 0 0 0 13 4.5 A 1.5 1.5 0 0 0 11.5 3 z M 16.5 4 A 1.5 1.5 0 0 0 15 5.5 A 1.5 1.5 0 0 0 16.5 7 A 1.5 1.5 0 0 0 18 5.5 A 1.5 1.5 0 0 0 16.5 4 z M 6 5 A 1 1 0 0 0 5 6 A 1 1 0 0 0 6 7 A 1 1 0 0 0 7 6 A 1 1 0 0 0 6 5 z M 19.5 9 A 1.5 1.5 0 0 0 18 10.5 A 1.5 1.5 0 0 0 19.5 12 A 1.5 1.5 0 0 0 21 10.5 A 1.5 1.5 0 0 0 19.5 9 z M 4 10 A 1 1 0 0 0 3 11 A 1 1 0 0 0 4 12 A 1 1 0 0 0 5 11 A 1 1 0 0 0 4 10 z M 18 14 A 2 2 0 0 0 16 16 A 2 2 0 0 0 18 18 A 2 2 0 0 0 20 16 A 2 2 0 0 0 18 14 z M 6 15 A 1 1 0 0 0 5 16 A 1 1 0 0 0 6 17 A 1 1 0 0 0 7 16 A 1 1 0 0 0 6 15 z M 11.5 16 A 2.5 2.5 0 0 0 9 18.5 A 2.5 2.5 0 0 0 11.5 21 A 2.5 2.5 0 0 0 14 18.5 A 2.5 2.5 0 0 0 11.5 16 z" fill="#969696" />
</svg>