<svg xmlns="http://www.w3.org/2000/svg" viewBox="0 0 48 48">
  <path d="M24.5 4C14.794 4 9 9.421 9 18.5L9 22.021484C7.747 22.949484 7 24.401 7 26C7 28.357 8.6398906 30.338281 10.837891 30.863281C12.832891 38.767281 18.026 44 24 44C29.974 44 35.167109 38.767281 37.162109 30.863281C39.360109 30.338281 41 28.357 41 26C41 24.41 40.253 22.964109 39 22.037109L39 20.5C39 19.048 38.706063 17.753359 38.414062 16.818359C38.997062 16.494359 39.464281 15.987188 39.738281 15.367188C40.097281 14.554187 40.085125 13.631031 39.703125 12.832031C37.019125 7.2200312 31.478 4 24.5 4 z M 19.460938 15.644531C21.208937 16.654531 24.553 18 30 18C32.128 18 34.023859 17.816172 35.505859 17.576172C35.737859 18.282172 36 19.327 36 20.5L36 22.878906C36 23.457906 36.332469 23.984422 36.855469 24.232422C37.561469 24.567422 38 25.245 38 26C38 27.083 37.134594 27.968047 36.058594 27.998047C36.016594 27.995047 35.974453 27.994141 35.939453 27.994141C35.230453 27.994141 34.616703 28.490547 34.470703 29.185547C33.011703 36.141547 28.706 41 24 41C19.294 41 14.988297 36.1425 13.529297 29.1875C13.383297 28.4925 12.769547 27.994141 12.060547 27.994141C12.026547 27.994141 11.985359 27.997 11.943359 28C10.866359 27.969 10 27.084 10 26C10 25.235 10.436578 24.55275 11.142578 24.21875C11.665578 23.97075 12 23.442281 12 22.863281L12 20.232422C15.17 19.457422 17.332062 17.7545 17.414062 17.6875C18.066063 17.1855 18.649391 16.630156 19.150391 16.035156C19.261391 15.901156 19.364984 15.771484 19.458984 15.646484C19.458984 15.646484 19.460938 15.644531 19.460938 15.644531 z M 19 24 A 2 2 0 0 0 19 28 A 2 2 0 0 0 19 24 z M 29 24 A 2 2 0 0 0 29 28 A 2 2 0 0 0 29 24 z" fill="#969696" />
</svg>