<svg xmlns="http://www.w3.org/2000/svg" viewBox="0 0 48 48">
  <path d="M24.5 4C19.722667 4 15.801817 5.343806 13.09375 7.9082031C10.385683 10.4726 9 14.183812 9 18.5L9 22.257812C7.8597735 23.168256 7 24.430675 7 26C7 28.361739 8.7044726 30.27003 10.919922 30.78125C11.816449 34.336333 13.30684 37.503248 15.40625 39.828125C17.708437 42.377556 20.706886 44 24 44C27.293114 44 30.291563 42.377556 32.59375 39.828125C34.69316 37.503248 36.183551 34.336333 37.080078 30.78125C39.295527 30.27003 41 28.361739 41 26C41 24.430284 40.137097 23.174656 39 22.269531L39 20.5C39 18.972289 38.692905 17.684593 38.388672 16.746094C39.729084 15.976372 40.404471 14.301112 39.703125 12.832031C37.198859 7.5967448 31.772704 4 24.5 4 z M 24.5 7C30.817296 7 34.972359 9.8962399 36.996094 14.126953C37.015684 14.168703 37.01229 14.182458 36.9375 14.205078C35.831221 14.539662 33.155739 15 30 15C26.1875 15 23.651629 14.289593 22.091797 13.621094C20.531965 12.952594 20.060547 12.439453 20.060547 12.439453 A 1.50015 1.50015 0 0 0 17.591797 12.982422C17.591797 12.982422 17.257509 14.021898 15.583984 15.310547 A 1.501294 1.501294 0 1 0 17.416016 17.689453C18.397661 16.933566 18.998913 16.16239 19.472656 15.5C19.971545 15.84549 19.970136 15.976878 20.908203 16.378906C22.848371 17.210407 25.8125 18 30 18C32.191533 18 33.963016 17.797096 35.484375 17.541016C35.729342 18.236361 36 19.210403 36 20.5L36 22.878906 A 1.50015 1.50015 0 0 0 36.855469 24.234375C37.54264 24.561015 38 25.202806 38 26C38 27.122343 37.122343 28 36 28C36.264714 28 36.24617 27.994141 35.939453 27.994141 A 1.50015 1.50015 0 0 0 34.470703 29.185547C33.727184 32.728666 32.236501 35.746337 30.367188 37.816406C28.497877 39.886516 26.317886 41 24 41C21.682114 41 19.502126 39.886475 17.632812 37.816406C15.763499 35.746337 14.272816 32.728666 13.529297 29.185547 A 1.50015 1.50015 0 0 0 12.060547 27.994141C11.753833 27.994141 11.735286 28 12 28C10.877657 28 10 27.122343 10 26C10 25.196375 10.461497 24.541671 11.142578 24.21875 A 1.50015 1.50015 0 0 0 12 22.863281L12 18.5C12 14.808188 13.114317 12.01954 15.15625 10.085938C17.198183 8.1523341 20.277333 7 24.5 7 z M 19 24 A 2 2 0 0 0 19 28 A 2 2 0 0 0 19 24 z M 29 24 A 2 2 0 0 0 29 28 A 2 2 0 0 0 29 24 z" fill="#969696" />
</svg>