<svg xmlns="http://www.w3.org/2000/svg" viewBox="0 0 24 24">
  <path d="M12 2C10.343 2 9 3.343 9 5L9 11C9 12.657 10.343 14 12 14C13.657 14 15 12.657 15 11L15 5C15 3.343 13.657 2 12 2 z M 6.0878906 11C5.4818906 11 4.9937969 11.537719 5.0917969 12.136719C5.5816755 15.136436 7.9811339 17.488992 11 17.921875L11 20C11 20.552 11.448 21 12 21C12.552 21 13 20.552 13 20L13 17.921875C16.018866 17.488992 18.418325 15.136436 18.908203 12.136719C19.006203 11.537719 18.518109 11 17.912109 11C17.418109 11 17.010734 11.363563 16.927734 11.851562C16.522734 14.206563 14.471 16 12 16C9.529 16 7.4772656 14.206563 7.0722656 11.851562C6.9892656 11.363563 6.5828906 11 6.0878906 11 z" fill="#969696" />
</svg>