<svg xmlns="http://www.w3.org/2000/svg" viewBox="0 0 48 48">
  <path d="M19.041016 4.0136719C18.382757 3.9657839 17.708271 4.0330649 17.046875 4.2285156L14.679688 4.9296875C12.157236 5.6756944 10.186338 7.677075 9.5195312 10.203125C8.0389548 15.820868 9.7326768 22.47029 14.140625 29.955078C18.542377 37.429539 23.558019 42.179937 29.222656 43.730469C31.773641 44.428685 34.524755 43.761709 36.457031 41.966797L38.257812 40.296875C40.272819 38.425993 40.573265 35.309882 38.945312 33.095703L36.34375 29.5625C34.949212 27.668344 32.49096 26.861916 30.230469 27.541016L26.160156 28.759766C25.989301 28.809656 25.580424 28.576963 25.224609 28.269531L25.222656 28.267578C24.588917 27.716517 23.710863 26.602712 22.771484 25.009766L22.771484 25.007812C21.764214 23.297093 21.334594 22.17828 21.162109 21.517578C20.989545 20.856572 21.031423 20.776164 21.056641 20.552734C21.069751 20.441248 21.122721 20.337948 21.212891 20.255859L21.214844 20.253906L24.25 17.478516C25.988893 15.888867 26.513843 13.348513 25.533203 11.210938L23.703125 7.21875L23.703125 7.2167969C22.841519 5.3386971 21.015266 4.1572962 19.041016 4.0136719 z M 18.824219 7.0058594C19.742414 7.0744633 20.587933 7.6252174 20.974609 8.46875L22.806641 12.460938C23.25 13.427361 23.027671 14.533274 22.226562 15.265625L19.191406 18.039062C18.569197 18.606386 18.171295 19.379878 18.076172 20.214844L18.076172 20.216797C18.051392 20.436367 17.992832 21.252897 18.259766 22.275391C18.526701 23.297884 19.077817 24.650307 20.185547 26.53125L20.1875 26.53125C21.221084 28.284258 22.197939 29.616041 23.255859 30.535156L23.257812 30.535156C23.601374 30.832583 25.041282 32.212607 27 31.640625L27.005859 31.638672L31.09375 30.414062C32.155259 30.095163 33.290273 30.475952 33.927734 31.341797L36.529297 34.875C37.266003 35.878668 37.13729 37.243002 36.216797 38.097656L34.416016 39.769531C33.264351 40.839787 31.554167 41.257578 30.013672 40.835938C25.434309 39.582469 20.90281 35.525133 16.726562 28.433594C12.544511 21.332382 11.236498 15.459007 12.419922 10.96875C12.811115 9.4868 14.009701 8.2566337 15.53125 7.8066406L17.896484 7.1054688C18.204589 7.0144199 18.518154 6.9829914 18.824219 7.0058594 z" fill="#969696" />
</svg>