<svg xmlns="http://www.w3.org/2000/svg" viewBox="0 0 48 48">
  <path d="M9.5 6C5.364 6 2 9.364 2 13.5L2 28.595703L11.84375 19.074219C13.33275 17.635219 15.662391 17.635219 17.150391 19.074219L22.347656 24.101562L24.445312 22.074219C25.934313 20.634219 28.263953 20.636219 29.751953 22.074219L40.419922 32.394531C40.792922 31.502531 41 30.525 41 29.5L41 13.5C41 9.364 37.636 6 33.5 6L9.5 6 z M 43 10.513672L43 30.5C43 35.187 39.187 39 34.5 39L12.013672 39C13.383672 40.818 15.553 42 18 42L34.5 42C40.841 42 46 36.841 46 30.5L46 16.5C46 14.054 44.818 11.883672 43 10.513672 z M 30.5 13C31.881 13 33 14.119 33 15.5C33 16.881 31.881 18 30.5 18C29.119 18 28 16.881 28 15.5C28 14.119 29.119 13 30.5 13 z M 14.496094 20.998047C14.291969 20.998047 14.089187 21.074016 13.929688 21.228516L2.53125 32.255859C3.60825 34.969859 6.2248281 36.901375 9.2988281 36.984375L9.1679688 36.849609L20.189453 26.1875L15.064453 21.228516C14.905453 21.074016 14.700219 20.998047 14.496094 20.998047 z M 27.095703 23.998047C26.891828 23.998297 26.688297 24.075016 26.529297 24.228516L13.328125 37L33.5 37C35.516 37 37.344359 36.196438 38.693359 34.898438L27.664062 24.228516C27.504562 24.074016 27.299578 23.997797 27.095703 23.998047 z" fill="#969696" />
</svg>