<svg xmlns="http://www.w3.org/2000/svg" viewBox="0 0 24 24">
  <path d="M3 3C1.897 3 1 3.897 1 5L1 15C1 16.103 1.897 17 3 17L16 17C17.103 17 18 16.103 18 15L18 5C18 3.897 17.103 3 16 3L3 3 z M 21 7C20.448 7 20 7.448 20 8L20 19L6 19C5.448 19 5 19.448 5 20C5 20.552 5.448 21 6 21L20 21C21.105 21 22 20.105 22 19L22 8C22 7.448 21.552 7 21 7 z M 12.128906 9.3535156C12.306156 9.3552656 12.482609 9.4372031 12.599609 9.5957031L15.882812 14.046875C16.171813 14.435875 15.89225 15 15.40625 15L3.59375 15C3.09975 15 2.8239062 14.41925 3.1289062 14.03125L5.4433594 11.087891C5.6763594 10.791891 6.1232812 10.786172 6.3632812 11.076172L8.046875 13.105469C8.289875 13.397469 8.7416563 13.388891 8.9726562 13.087891L11.652344 9.5859375C11.772344 9.4294375 11.951656 9.3517656 12.128906 9.3535156 z" fill="#969696" />
</svg>