<svg xmlns="http://www.w3.org/2000/svg" viewBox="0 0 48 48">
  <path d="M23.970703 5.9726562 A 2.0002 2.0002 0 0 0 22 8L22 27.171875L19.414062 24.585938 A 2.0002 2.0002 0 1 0 16.585938 27.414062L22.585938 33.414062 A 2.0002 2.0002 0 0 0 25.414062 33.414062L31.414062 27.414062 A 2.0002 2.0002 0 1 0 28.585938 24.585938L26 27.171875L26 8 A 2.0002 2.0002 0 0 0 23.970703 5.9726562 z M 7.9707031 30.972656 A 2.0002 2.0002 0 0 0 6 33L6 36C6 39.290032 8.7099679 42 12 42L36 42C39.290032 42 42 39.290032 42 36L42 33 A 2.0002 2.0002 0 1 0 38 33L38 36C38 37.127968 37.127968 38 36 38L12 38C10.872032 38 10 37.127968 10 36L10 33 A 2.0002 2.0002 0 0 0 7.9707031 30.972656 z" fill="#969696" />
</svg>