<svg xmlns="http://www.w3.org/2000/svg" viewBox="0 0 48 48">
  <path d="M12.5 4C10.019 4 8 6.019 8 8.5L8 39.5C8 41.981 10.019 44 12.5 44L33 44L33 43.949219C27.954 43.446219 24 39.176 24 34C24 28.486 28.486 24 34 24C36.253 24 38.326 24.758531 40 26.019531L40 20L28.5 20C26.019 20 24 17.981 24 15.5L24 4L12.5 4 z M 27 4.8789062L27 15.5C27 16.327 27.673 17 28.5 17L39.121094 17L27 4.8789062 z M 34 26C29.589 26 26 29.589 26 34C26 38.411 29.589 42 34 42C35.665 42 37.210187 41.487281 38.492188 40.613281L43.439453 45.560547C43.732453 45.854547 44.116 46 44.5 46C44.884 46 45.267547 45.853547 45.560547 45.560547C46.145547 44.974547 46.145547 44.025453 45.560547 43.439453L40.615234 38.492188C41.488234 37.210187 42 35.665 42 34C42 29.589 38.411 26 34 26 z M 34 29C36.757 29 39 31.243 39 34C39 36.757 36.757 39 34 39C31.243 39 29 36.757 29 34C29 31.243 31.243 29 34 29 z" fill="#969696" />
</svg>