<svg xmlns="http://www.w3.org/2000/svg" viewBox="0 0 48 48">
  <path d="M27.216797 7.1015625C27.084935 7.1013567 26.952471 7.1110209 26.820312 7.1289062C26.29168 7.2004472 25.770296 7.4185563 25.339844 7.8007812 A 1.50015 1.50015 0 0 0 25.339844 7.8027344L16.117188 16L9.5 16C7.0324991 16 5 18.032499 5 20.5L5 27.5C5 29.967501 7.0324991 32 9.5 32L16.117188 32L25.339844 40.197266C26.200649 40.96254 27.421458 41.075139 28.345703 40.660156C29.269948 40.245173 30 39.257378 30 38.105469L30 9.8945312C30 8.7430679 29.271967 7.7549754 28.347656 7.3398438C28.00104 7.1841693 27.612384 7.10218 27.216797 7.1015625 z M 38.755859 11.980469 A 1.50015 1.50015 0 0 0 37.429688 14.193359C40.888956 20.818098 40.888956 27.181902 37.429688 33.806641 A 1.50015 1.50015 0 1 0 40.089844 35.193359C43.930574 27.838098 43.930574 20.161902 40.089844 12.806641 A 1.50015 1.50015 0 0 0 38.755859 11.980469 z M 34.171875 16.996094 A 1.50015 1.50015 0 0 0 32.880859 19.138672C34.397398 22.45712 34.395303 25.559819 32.873047 28.878906 A 1.50015 1.50015 0 1 0 35.599609 30.130859C37.437342 26.123947 37.440802 21.898177 35.609375 17.890625 A 1.50015 1.50015 0 0 0 34.171875 16.996094 z" fill="#969696" />
</svg>