<svg xmlns="http://www.w3.org/2000/svg" viewBox="0 0 24 24">
  <path d="M10.294922 3.9882812C10.122922 3.9882812 9.9476875 4.0533125 9.8046875 4.1953125L5 9L3 9C1.895 9 1 9.895 1 11L1 13C1 14.105 1.895 15 3 15L5 15L9.8046875 19.804688C9.9476875 19.947688 10.122922 20.011719 10.294922 20.011719C10.654922 20.011719 11 19.732547 11 19.310547L11 4.6894531C11 4.2674531 10.654922 3.9882812 10.294922 3.9882812 z M 15.939453 6.0390625 A 1.0001 1.0001 0 0 0 15.242188 7.7578125C17.594098 10.109723 17.593888 13.891346 15.242188 16.242188 A 1.0001 1.0001 0 1 0 16.65625 17.65625C19.772549 14.541091 19.772339 9.4598394 16.65625 6.34375 A 1.0001 1.0001 0 0 0 15.939453 6.0390625 z M 13.111328 8.8691406 A 1.0001 1.0001 0 0 0 12.414062 10.585938C13.204152 11.376027 13.204152 12.623974 12.414062 13.414062 A 1.0005843 1.0005843 0 1 0 13.828125 14.830078C15.382035 13.276168 15.382035 10.725785 13.828125 9.171875 A 1.0001 1.0001 0 0 0 13.111328 8.8691406 z" fill="#969696" />
</svg>