<svg xmlns="http://www.w3.org/2000/svg" viewBox="0 0 24 24">
  <path d="M10 5.3417969C9.744125 5.3417969 9.4879688 5.4412187 9.2929688 5.6367188L3.6367188 11.292969C3.2457187 11.683969 3.2457187 12.317031 3.6367188 12.707031L9.2929688 18.363281C9.6839688 18.754281 10.317031 18.754281 10.707031 18.363281L10.792969 18.277344C11.183969 17.886344 11.183969 17.253281 10.792969 16.863281L6.9296875 13L20 13C20.552 13 21 12.552 21 12C21 11.448 20.552 11 20 11L6.9296875 11L10.792969 7.1367188C11.183969 6.7457187 11.183969 6.1126563 10.792969 5.7226562L10.707031 5.6367188C10.511531 5.4412187 10.255875 5.3417969 10 5.3417969 z" fill="#C4C4C4" />
</svg>