<svg xmlns="http://www.w3.org/2000/svg" viewBox="0 0 48 48">
  <path d="M12.5 4C10.02 4 8 6.02 8 8.5L8 39.5C8 41.98 10.02 44 12.5 44L26.539062 44C26.189063 43.4 26 42.73 26 42L26 41L12.5 41C11.67 41 11 40.33 11 39.5L11 8.5C11 7.67 11.67 7 12.5 7L24 7L24 15.5C24 17.98 26.02 20 28.5 20L37 20L37 24C38.01 24 39.02 24.070938 40 24.210938L40 18.5C40 18.085 39.831797 17.710703 39.560547 17.439453L26.560547 4.4394531C26.289297 4.1682031 25.915 4 25.5 4L12.5 4 z M 27 9.1210938L34.878906 17L28.5 17C27.67 17 27 16.33 27 15.5L27 9.1210938 z M 17.5 25C16.67 25 16 25.67 16 26.5C16 27.33 16.67 28 17.5 28L26.539062 28C27.299062 26.67 28.830469 25.66 30.730469 25L17.5 25 z M 37 26C32.029 26 28 27.791 28 30C28 32.209 32.029 34 37 34C41.971 34 46 32.209 46 30C46 27.791 41.971 26 37 26 z M 17.5 32C16.671 32 16 32.672 16 33.5C16 34.328 16.671 35 17.5 35L26 35L26 32L17.5 32 z M 28 33L28 36C28 38.21 32.03 40 37 40C41.97 40 46 38.21 46 36L46 33C46 35.21 41.97 37 37 37C32.03 37 28 35.21 28 33 z M 28 39L28 42C28 44.21 32.03 46 37 46C41.97 46 46 44.21 46 42L46 39C46 41.21 41.97 43 37 43C32.03 43 28 41.21 28 39 z" fill="#969696" />
</svg>