<svg xmlns="http://www.w3.org/2000/svg" viewBox="0 0 48 48">
  <path d="M8.5 8C6.0324991 8 4 10.032499 4 12.5L4 35.5C4 37.967501 6.0324991 40 8.5 40L39.5 40C41.967501 40 44 37.967501 44 35.5L44 17.5C44 15.032499 41.967501 13 39.5 13L24.042969 13L19.572266 9.2753906C18.584055 8.4521105 17.339162 8 16.052734 8L8.5 8 z M 8.5 11L16.052734 11C16.638307 11 17.202555 11.205358 17.652344 11.580078L21.15625 14.5L17.652344 17.419922C17.202555 17.794642 16.638307 18 16.052734 18L7 18L7 12.5C7 11.653501 7.6535009 11 8.5 11 z M 24.042969 16L39.5 16C40.346499 16 41 16.653501 41 17.5L41 35.5C41 36.346499 40.346499 37 39.5 37L8.5 37C7.6535009 37 7 36.346499 7 35.5L7 21L16.052734 21C17.339162 21 18.584055 20.547889 19.572266 19.724609L24.042969 16 z" fill="#969696" />
</svg>