<svg xmlns="http://www.w3.org/2000/svg" viewBox="0 0 48 48">
  <path d="M24 2C19.047281 2 15 6.0472805 15 11L15 26C15 30.952719 19.047281 35 24 35C28.952719 35 33 30.952719 33 26L33 11C33 6.0472805 28.952719 2 24 2 z M 24 5C27.331281 5 30 7.6687195 30 11L30 26C30 29.331281 27.331281 32 24 32C20.668719 32 18 29.331281 18 26L18 11C18 7.6687195 20.668719 5 24 5 z M 10.476562 20.978516 A 1.50015 1.50015 0 0 0 9 22.5L9 26C9 33.760508 14.934038 40.16812 22.5 40.923828L22.5 45.5 A 1.50015 1.50015 0 1 0 25.5 45.5L25.5 40.923828C33.065962 40.16812 39 33.760508 39 26L39 22.5 A 1.50015 1.50015 0 1 0 36 22.5L36 26C36 32.585372 30.739679 37.894735 24.177734 37.990234 A 1.50015 1.50015 0 0 0 23.976562 37.978516 A 1.50015 1.50015 0 0 0 23.8125 37.990234C17.255134 37.889572 12 32.582085 12 26L12 22.5 A 1.50015 1.50015 0 0 0 10.476562 20.978516 z" fill="#969696" />
</svg>