<svg xmlns="http://www.w3.org/2000/svg" viewBox="0 0 48 48">
  <path d="M24.048828 2 A 1.50015 1.50015 0 0 0 22.998047 2.3847656C22.998047 2.3847656 15.490168 9 6.5 9 A 1.50015 1.50015 0 0 0 5 10.5L5 22.759766C5 29.437814 8.0894135 40.426402 23.417969 46.882812 A 1.50015 1.50015 0 0 0 24.582031 46.882812C39.910586 40.426403 43 29.437814 43 22.759766L43 10.5 A 1.50015 1.50015 0 0 0 41.5 9C32.509832 9 25.001953 2.3847656 25.001953 2.3847656 A 1.50015 1.50015 0 0 0 24.048828 2 z M 24 5.4277344C26.062966 7.0863651 32.111257 11.337189 40 11.875L40 22.759766C40 26.066051 39.253625 30.538961 36 34.896484L36 34.5C36 32.031818 33.968182 30 31.5 30L16.5 30C14.031818 30 12 32.031818 12 34.5L12 34.896484C8.7463747 30.538961 8 26.066051 8 22.759766L8 11.875C15.888743 11.337189 21.937034 7.0863651 24 5.4277344 z M 24 14C20.151772 14 17 17.151775 17 21C17 24.848225 20.151772 28 24 28C27.848228 28 31 24.848225 31 21C31 17.151775 27.848228 14 24 14 z M 24 17C26.226909 17 28 18.773093 28 21C28 23.226907 26.226909 25 24 25C21.773091 25 20 23.226907 20 21C20 18.773093 21.773091 17 24 17 z M 16.5 33L31.5 33C32.331818 33 33 33.668182 33 34.5L33 38.162109C30.753793 40.20032 27.839306 42.139279 24 43.826172C20.160694 42.139279 17.246207 40.20032 15 38.162109L15 34.5C15 33.668182 15.668182 33 16.5 33 z" fill="#969696" />
</svg>