<svg xmlns="http://www.w3.org/2000/svg" viewBox="0 0 48 48">
  <path d="M23.589844 6.109375C23.481156 6.0968906 23.371016 6.0988906 23.259766 6.1191406C21.107766 6.5541406 15 8.322 15 14.5C15 14.741107 15.010546 14.93698 15.017578 15.146484C14.880389 15.810182 14.802734 16.496223 14.802734 17.199219L14.802734 18.044922C14.363591 18.149715 14.027042 18.520318 14.011719 18.990234C13.959719 20.694234 14.028188 24 15.367188 24L15.753906 24C16.138528 25.082808 16.632839 26.089292 17.232422 26.988281C17.442656 27.303498 17.776593 27.475465 18.015625 27.763672 A 1.50015 1.50015 0 0 0 18 28L18 31.275391C15.987586 31.577257 13.911939 32.300724 12.035156 33.570312C9.6919026 35.155456 7.6551061 37.384054 7.0351562 40.173828 A 1.5007183 1.5007183 0 0 0 9.9648438 40.826172C10.344894 39.115946 11.808098 37.344544 13.714844 36.054688C15.29952 34.9827 17.084013 34.392696 18.566406 34.183594C18.712307 34.638389 18.631136 34.739111 18.978516 35.294922C19.794077 36.59982 21.5 38 24 38C26.747779 38 28.542987 36.610229 29.302734 35.21875C29.501666 34.854407 29.53286 34.558584 29.634766 34.220703C31.110112 34.461303 32.855616 35.03178 34.402344 36.060547C36.340291 37.349523 37.759524 39.09882 38.017578 40.734375 A 1.5008353 1.5008353 0 1 0 40.982422 40.265625C40.530476 37.40118 38.449006 35.150477 36.064453 33.564453C34.150214 32.291246 32.032602 31.569505 30 31.271484L30 27.5 A 1.50015 1.50015 0 0 0 29.996094 27.421875C30.211047 27.135136 30.52099 26.949451 30.710938 26.644531C31.222944 25.822608 31.652896 24.929634 32.011719 24L32.632812 24C33.971813 24 34.040281 20.694234 33.988281 18.990234C33.972958 18.520318 33.636409 18.149715 33.197266 18.044922L33.197266 17.199219C33.197243 14.8807 32.41042 12.732332 31.097656 11.048828C30.199351 9.4047492 28.6241 8.2242463 26.769531 7.8535156C25.805531 7.6605156 25 7.5 25 7.5C25 7.5 24.681297 7.0234219 24.404297 6.6074219C24.216047 6.3254219 23.915906 6.1468281 23.589844 6.109375 z M 26 13C26.923589 14.584424 29.095051 15.929056 30.160156 16.472656C30.183596 16.711116 30.197266 16.953082 30.197266 17.199219L30.197266 18.228516C30.098206 20.575651 29.338414 23.176545 28.166016 25.058594C26.991705 26.943712 25.55576 28 24 28C22.353127 28 20.897057 27.07433 19.728516 25.322266C18.559974 23.570201 17.802734 21.032091 17.802734 18.279297L17.802734 17.199219C17.802734 16.775049 17.843845 16.362998 17.912109 15.962891C21.213371 15.709333 23.841698 14.560426 26 13 z M 7.9902344 16.568359C7.8963594 16.549859 7.797625 16.552625 7.703125 16.578125C6.4793818 16.966552 1.8576181 18.758023 2.0019531 23.863281C2.0018785 23.875762 2 23.887896 2 23.900391L2 24.478516C2 26.359232 2.4687335 28.122492 3.3710938 29.519531C4.273454 30.91657 5.7420432 32 7.5 32C9.3520846 32 10.755037 30.735772 11.611328 29.316406C12.467619 27.897041 12.931803 26.198697 12.998047 24.539062 A 1.50015 1.50015 0 0 0 13 24.478516L13 23.900391C13 21.574055 11.702376 19.485787 9.7851562 18.539062C9.418815 17.805224 8.903884 17.189839 8.2519531 16.685547C8.1739531 16.626047 8.0841094 16.586859 7.9902344 16.568359 z M 40.990234 16.568359C40.896359 16.549859 40.797625 16.552625 40.703125 16.578125C39.479382 16.966552 34.857618 18.758023 35.001953 23.863281C35.001879 23.875762 35 23.887896 35 23.900391L35 24.478516C35 26.359232 35.468734 28.122492 36.371094 29.519531C37.273454 30.91657 38.742043 32 40.5 32C42.352085 32 43.755037 30.735772 44.611328 29.316406C45.467619 27.897041 45.931803 26.198697 45.998047 24.539062 A 1.50015 1.50015 0 0 0 46 24.478516L46 23.900391C46 21.574055 44.702376 19.485787 42.785156 18.539062C42.418815 17.805224 41.903884 17.189839 41.251953 16.685547C41.173953 16.626047 41.084109 16.586859 40.990234 16.568359 z M 21 18 A 1 1 0 0 0 21 20 A 1 1 0 0 0 21 18 z M 27 18 A 1 1 0 0 0 27 20 A 1 1 0 0 0 27 18 z M 7.5 21C8.8148841 21 10 22.210447 10 23.900391L10 24.425781C9.9531546 25.570699 9.5787265 26.87952 9.0429688 27.767578C8.5062598 28.657213 7.9639154 29 7.5 29C6.9419568 29 6.4092648 28.693586 5.890625 27.890625C5.3719852 27.087664 5 25.839799 5 24.478516L5 23.900391C5 22.210447 6.1851159 21 7.5 21 z M 40.5 21C41.814884 21 43 22.210447 43 23.900391L43 24.425781C42.95316 25.570699 42.578727 26.87952 42.042969 27.767578C41.50626 28.657213 40.963915 29 40.5 29C39.941957 29 39.409265 28.693586 38.890625 27.890625C38.371985 27.087664 38 25.839799 38 24.478516L38 23.900391C38 22.210447 39.185116 21 40.5 21 z M 27 30.179688L27 32.5 A 1.50015 1.50015 0 0 0 27 32.517578 A 1.50015 1.50015 0 0 0 27 32.548828C27 32.548828 27.0022 33.172729 26.669922 33.78125C26.337669 34.389769 25.884221 35 24 35C22.5 35 21.955923 34.40018 21.521484 33.705078C21.096249 33.024702 21.004215 32.372306 21 32.34375 A 1.50015 1.50015 0 0 0 21 32.304688L21 30.259766C21.932235 30.694715 22.921803 31 24 31C25.099522 31 26.082631 30.65737 27 30.179688 z" fill="#969696" />
</svg>