<svg xmlns="http://www.w3.org/2000/svg" viewBox="0 0 48 48">
  <path d="M24 5.078125L24 5.0820312C18.50554 5.0943863 14.021484 9.580882 14.021484 15.078125C14.021484 20.377474 18.21929 24.642563 23.441406 24.960938 A 1.50015 1.50015 0 0 0 24 25.078125L24.021484 25.078125 A 1.50015 1.50015 0 0 0 24.587891 24.958984C29.806144 24.636517 34 20.374681 34 15.078125C34 9.580882 29.515944 5.0943861 24.021484 5.0820312L24.021484 5.078125L24 5.078125 z M 24.011719 8.0800781C27.889126 8.0867079 31 11.199083 31 15.078125C31 18.957166 27.889126 22.069541 24.011719 22.076172C20.133381 22.070572 17.021484 18.957833 17.021484 15.078125C17.021484 11.198416 20.13338 8.0856401 24.011719 8.0800781 z M 41.498047 23.998047C41.224047 23.999047 40.946969 24.023219 40.667969 24.074219C39.783969 24.233219 38.939563 24.694203 38.226562 25.408203L36.878906 26.755859L43.242188 33.119141L44.589844 31.773438C45.303844 31.060437 45.764828 30.214078 45.923828 29.330078C45.973828 29.051078 45.997047 28.774 45.998047 28.5C46.001047 27.306 45.540688 26.177359 44.679688 25.318359C43.820687 24.458359 42.692047 23.996047 41.498047 23.998047 z M 34.757812 28.878906L26.427734 37.207031C26.070734 37.564031 25.807969 38.009188 25.667969 38.492188L24.097656 43.972656C24.025656 44.162656 23.993 44.363453 24 44.564453C24.013 44.927453 24.155594 45.286453 24.433594 45.564453C24.710594 45.841453 25.067688 45.984047 25.429688 45.998047C25.630688 46.005047 25.834391 45.973391 26.025391 45.900391L31.505859 44.332031C31.988859 44.192031 32.431062 43.930266 32.789062 43.572266L41.121094 35.240234L34.757812 28.878906 z M 12.5 29.078125C10.019 29.078125 8 31.097125 8 33.578125L8 34.779297C8 40.127297 14.031828 44.395047 22.048828 44.998047C22.032828 44.878047 22.006953 44.760672 22.001953 44.638672C21.986953 44.197672 22.051359 43.767422 22.193359 43.357422L22.574219 42.023438C15.393219 41.602438 11 38.075297 11 34.779297L11 33.578125C11 32.751125 11.673 32.078125 12.5 32.078125L28.726562 32.078125L31.726562 29.078125L12.5 29.078125 z" fill="#969696" />
</svg>