<svg xmlns="http://www.w3.org/2000/svg" viewBox="0 0 48 48">
  <path d="M24 4C12.972292 4 4 12.972292 4 24C4 35.027708 12.972292 44 24 44C30.348948 44 36.015633 41.02311 39.675781 36.400391 A 1.50015 1.50015 0 1 0 37.324219 34.537109C34.208367 38.47239 29.413052 41 24 41C14.593708 41 7 33.406292 7 24C7 14.593708 14.593708 7 24 7C29.413052 7 34.208367 9.5276097 37.324219 13.462891 A 1.50015 1.50015 0 1 0 39.675781 11.599609C36.015633 6.9768903 30.348948 4 24 4 z M 36.484375 16.484375 A 1.50015 1.50015 0 0 0 35.439453 19.060547L38.876953 22.498047L18.501953 22.480469 A 1.50015 1.50015 0 1 0 18.498047 25.480469L38.880859 25.498047L35.439453 28.939453 A 1.50015 1.50015 0 1 0 37.560547 31.060547L43.560547 25.060547 A 1.50015 1.50015 0 0 0 43.560547 22.939453L37.560547 16.939453 A 1.50015 1.50015 0 0 0 36.484375 16.484375 z" fill="#969696" />
</svg>