<svg xmlns="http://www.w3.org/2000/svg" viewBox="0 0 48 48">
  <path d="M17.107422 5.0078125L17.107422 6.5078125L16.458984 6.8574219L15.826172 5.7910156L3.1953125 28.962891 A 1.50015 1.50015 0 0 0 3.1738281 30.357422L9.1621094 42.177734 A 1.50015 1.50015 0 0 0 10.5 43L36.5 43 A 1.50015 1.50015 0 0 0 37.796875 42.253906L44.685547 30.416016 A 1.50015 1.50015 0 0 0 45 29.5L45 29.470703 A 1.50015 1.50015 0 0 0 44.707031 28.583984L32.203125 5.7871094 A 1.50015 1.50015 0 0 0 30.888672 5.0078125L17.144531 5.0078125L17.107422 5.0078125 z M 19.619141 8.0078125L30 8.0078125L40.953125 27.972656L30.386719 27.986328L19.619141 8.0078125 z M 17.119141 9.6894531L22.003906 18.753906L10.591797 38.361328L6.2070312 29.705078L17.119141 9.6894531 z M 23.673828 21.849609L26.982422 27.990234L20.095703 27.998047L23.673828 21.849609 z M 40.890625 30.974609L35.636719 40L13.109375 40L18.347656 31L40.890625 30.974609 z" fill="#969696" />
</svg>